#define 3bc95e1ea4d14cfccbec0af7c15d3e73tqJHUPU921B44n30_width 128
#define 3bc95e1ea4d14cfccbec0af7c15d3e73tqJHUPU921B44n30_height 128
static char 3bc95e1ea4d14cfccbec0af7c15d3e73tqJHUPU921B44n30_bits[] = {
  0x00, 0x00, 0x00, 0x00, 0x00, 0x00, 0x00, 0x00, 0x00, 0x00, 0x00, 0x00, 
  0x00, 0x00, 0x00, 0x00, 0x00, 0x00, 0x00, 0x00, 0x00, 0x00, 0x00, 0x00, 
  0x00, 0x00, 0x00, 0x00, 0x00, 0x00, 0x00, 0x00, 0x00, 0x00, 0x00, 0x00, 
  0x00, 0x00, 0x00, 0x00, 0x00, 0x00, 0x00, 0x00, 0x00, 0x00, 0x00, 0x00, 
  0x00, 0x00, 0x00, 0x00, 0x00, 0x00, 0x00, 0x00, 0x00, 0x00, 0x00, 0x00, 
  0x00, 0x00, 0x00, 0x00, 0x00, 0x00, 0x00, 0x00, 0x00, 0x00, 0x00, 0x00, 
  0x00, 0x00, 0x00, 0x00, 0x00, 0x00, 0x00, 0x00, 0x00, 0x00, 0x00, 0x00, 
  0x00, 0x00, 0x00, 0x00, 0x00, 0x00, 0x00, 0x00, 0x00, 0x00, 0x00, 0x00, 
  0x00, 0x00, 0x00, 0x00, 0x00, 0x00, 0x00, 0x00, 0x00, 0x00, 0x00, 0x00, 
  0x00, 0x00, 0x00, 0x00, 0x00, 0x00, 0x00, 0x00, 0x00, 0x00, 0x00, 0x00, 
  0x00, 0x00, 0x00, 0x00, 0x00, 0x00, 0x00, 0x00, 0x00, 0x00, 0x00, 0x00, 
  0x00, 0x00, 0x00, 0x00, 0x00, 0x00, 0x00, 0x00, 0x00, 0x00, 0x00, 0x00, 
  0x00, 0x00, 0x00, 0x00, 0x00, 0x00, 0x00, 0x00, 0x00, 0x00, 0x00, 0x00, 
  0x00, 0x00, 0x00, 0x00, 0x00, 0x00, 0x00, 0x00, 0x00, 0x00, 0x00, 0x00, 
  0x00, 0x00, 0x00, 0x00, 0x00, 0x00, 0x00, 0x00, 0x00, 0x00, 0x00, 0x00, 
  0x00, 0x00, 0x00, 0x00, 0x00, 0x00, 0x00, 0x00, 0x00, 0x00, 0x00, 0x00, 
  0x00, 0x00, 0x00, 0x00, 0x00, 0x00, 0x00, 0x00, 0x00, 0x00, 0x00, 0x00, 
  0x00, 0x00, 0x00, 0x00, 0x00, 0x00, 0x00, 0x00, 0x00, 0x00, 0x00, 0x00, 
  0x00, 0x00, 0x00, 0x00, 0x00, 0x00, 0x00, 0x00, 0x00, 0x00, 0x00, 0x00, 
  0x00, 0x00, 0x00, 0x00, 0x00, 0x00, 0x00, 0x00, 0x00, 0x00, 0x00, 0x00, 
  0x00, 0x00, 0x00, 0x00, 0x00, 0x00, 0x00, 0x00, 0x00, 0x00, 0x00, 0x00, 
  0x00, 0x00, 0x00, 0x00, 0x00, 0x00, 0xFF, 0xFF, 0xFF, 0xFF, 0x01, 0x00, 
  0x00, 0x80, 0xFF, 0xFF, 0xFF, 0xFF, 0x00, 0x00, 0x00, 0x00, 0xFF, 0xFF, 
  0xFF, 0xFF, 0x03, 0x00, 0x00, 0xC0, 0xFF, 0xFF, 0xFF, 0xFF, 0x00, 0x00, 
  0x00, 0x00, 0x5F, 0x65, 0x56, 0x96, 0x07, 0x00, 0x00, 0xE0, 0x65, 0x56, 
  0x95, 0xFD, 0x00, 0x00, 0x00, 0x00, 0x3F, 0x00, 0x00, 0x00, 0x0F, 0x00, 
  0x00, 0xF0, 0x00, 0x00, 0x00, 0xFC, 0x00, 0x00, 0x00, 0x00, 0xFF, 0x00, 
  0x00, 0x00, 0x1E, 0x00, 0x00, 0x78, 0x00, 0x00, 0x00, 0xFF, 0x00, 0x00, 
  0x00, 0x00, 0xFF, 0x01, 0x00, 0x00, 0x3C, 0x00, 0x00, 0x3C, 0x00, 0x00, 
  0xC0, 0xDF, 0x00, 0x00, 0x00, 0x00, 0xF7, 0x07, 0x00, 0x00, 0x78, 0x00, 
  0x00, 0x1E, 0x00, 0x00, 0xE0, 0xEE, 0x00, 0x00, 0x00, 0x00, 0xB3, 0x1D, 
  0x00, 0x00, 0xF0, 0x00, 0x00, 0x0F, 0x00, 0x00, 0x38, 0xEF, 0x00, 0x00, 
  0x00, 0x00, 0x67, 0x39, 0x00, 0x00, 0xE0, 0x01, 0x80, 0x07, 0x00, 0x00, 
  0xCC, 0xC7, 0x00, 0x00, 0x00, 0x00, 0x43, 0xE2, 0x00, 0x00, 0xC0, 0x03, 
  0xC0, 0x03, 0x00, 0x00, 0x47, 0xE2, 0x00, 0x00, 0x00, 0x00, 0xC3, 0x84, 
  0x01, 0x00, 0x80, 0x07, 0xE0, 0x01, 0x00, 0xC0, 0x31, 0xE3, 0x00, 0x00, 
  0x00, 0x00, 0x87, 0x1D, 0x0F, 0x00, 0x00, 0x0F, 0xF0, 0x00, 0x00, 0xE0, 
  0x98, 0xC1, 0x00, 0x00, 0x00, 0x00, 0x87, 0x11, 0x1C, 0x00, 0x00, 0x1E, 
  0x78, 0x00, 0x00, 0x38, 0x88, 0xC1, 0x00, 0x00, 0x00, 0x00, 0x03, 0x23, 
  0x70, 0x00, 0x00, 0x3C, 0x3C, 0x00, 0x00, 0x0E, 0xC6, 0xE0, 0x00, 0x00, 
  0x00, 0x00, 0x07, 0xC6, 0xE0, 0x00, 0x00, 0x78, 0x1E, 0x00, 0x00, 0x03, 
  0x46, 0xE0, 0x00, 0x00, 0x00, 0x00, 0x03, 0x86, 0x80, 0x03, 0x00, 0xF0, 
  0x0F, 0x00, 0xC0, 0x01, 0x61, 0xC0, 0x00, 0x00, 0x00, 0x00, 0x07, 0x0C, 
  0x01, 0x0E, 0x00, 0xE0, 0x07, 0x00, 0x70, 0x80, 0x31, 0xC0, 0x00, 0x00, 
  0x00, 0x00, 0x03, 0x0C, 0x03, 0x1C, 0x00, 0xC0, 0x03, 0x00, 0x38, 0xC0, 
  0x10, 0xE0, 0x00, 0x00, 0x00, 0x00, 0x07, 0x18, 0x0C, 0x70, 0x00, 0x80, 
  0x01, 0x00, 0x0E, 0x20, 0x18, 0xE0, 0x00, 0x00, 0x00, 0x00, 0x03, 0x10, 
  0x08, 0xC0, 0x01, 0x00, 0x00, 0x80, 0x03, 0x30, 0x18, 0xC0, 0x00, 0x00, 
  0x00, 0x00, 0x07, 0x30, 0x10, 0x80, 0x03, 0x00, 0x00, 0xE0, 0x01, 0x08, 
  0x0C, 0xC0, 0x00, 0x00, 0x00, 0x00, 0x03, 0x20, 0x30, 0x00, 0x0E, 0x00, 
  0x00, 0x30, 0x00, 0x0C, 0x04, 0xE0, 0x00, 0x00, 0x00, 0x00, 0x03, 0x60, 
  0xC0, 0x00, 0x3C, 0x00, 0x00, 0x1C, 0x00, 0x03, 0x06, 0xE0, 0x00, 0x00, 
  0x00, 0x00, 0x07, 0xC0, 0x80, 0x00, 0x60, 0x00, 0x00, 0x07, 0x00, 0x01, 
  0x03, 0xC0, 0x00, 0x00, 0x00, 0x00, 0x07, 0x80, 0x00, 0x01, 0xC0, 0x00, 
  0x00, 0x03, 0xC0, 0x80, 0x01, 0xC0, 0x00, 0x00, 0x00, 0x00, 0x03, 0x80, 
  0x01, 0x03, 0x80, 0x01, 0x80, 0x01, 0x40, 0x80, 0x01, 0xE0, 0x00, 0x00, 
  0x00, 0x00, 0x07, 0x00, 0x03, 0x0C, 0x00, 0x03, 0xC0, 0x00, 0x30, 0xC0, 
  0x00, 0xC0, 0x00, 0x00, 0x00, 0x00, 0x03, 0x00, 0x03, 0x08, 0x00, 0x03, 
  0xC0, 0x00, 0x10, 0x40, 0x00, 0xE0, 0x00, 0x00, 0x00, 0x00, 0x07, 0x00, 
  0x06, 0x30, 0x00, 0x06, 0x60, 0x00, 0x0C, 0x60, 0x00, 0xC0, 0x00, 0x00, 
  0x00, 0x00, 0x03, 0x00, 0x04, 0x20, 0x00, 0x04, 0x20, 0x00, 0x04, 0x20, 
  0x00, 0xE0, 0x00, 0x00, 0x00, 0x00, 0x03, 0x00, 0x0C, 0x40, 0x00, 0x0C, 
  0x30, 0x00, 0x02, 0x30, 0x00, 0xC0, 0x00, 0x00, 0x00, 0x00, 0x07, 0x00, 
  0x08, 0xC0, 0x00, 0x18, 0x18, 0x00, 0x03, 0x18, 0x00, 0xE0, 0x00, 0x00, 
  0x00, 0x00, 0x0F, 0x00, 0x18, 0x00, 0x01, 0x18, 0x08, 0x80, 0x00, 0x18, 
  0x00, 0xF0, 0x00, 0x00, 0x00, 0x00, 0x1E, 0x00, 0x30, 0x00, 0x07, 0x30, 
  0x0C, 0x60, 0x00, 0x0C, 0x00, 0x78, 0x00, 0x00, 0x00, 0x00, 0x3C, 0x00, 
  0x20, 0x00, 0x0E, 0x20, 0x04, 0x78, 0x00, 0x04, 0x00, 0x3C, 0x00, 0x00, 
  0x00, 0x00, 0x78, 0x00, 0x60, 0x00, 0x3C, 0x60, 0x06, 0x3C, 0x00, 0x06, 
  0x00, 0x1E, 0x00, 0x00, 0x00, 0x00, 0xF0, 0x00, 0xC0, 0x00, 0xF8, 0xC0, 
  0x03, 0x1F, 0x00, 0x03, 0x00, 0x0F, 0x00, 0x00, 0x00, 0x00, 0xE0, 0x01, 
  0xC0, 0x00, 0xF8, 0xC3, 0x83, 0x1F, 0x00, 0x03, 0x80, 0x07, 0x00, 0x00, 
  0x00, 0x00, 0xC0, 0x03, 0x80, 0x01, 0xF0, 0x87, 0xE1, 0x0F, 0x80, 0x01, 
  0xC0, 0x03, 0x00, 0x00, 0x00, 0x00, 0x80, 0x07, 0x00, 0x03, 0xB0, 0x9C, 
  0xB9, 0x0D, 0xC0, 0x00, 0xE0, 0x01, 0x00, 0x00, 0x00, 0x00, 0x00, 0x0F, 
  0x00, 0x0E, 0xE0, 0xF9, 0x9F, 0x06, 0x70, 0x00, 0xF0, 0x00, 0x00, 0x00, 
  0x00, 0x00, 0x00, 0x1E, 0x00, 0x1C, 0x40, 0xE2, 0xC7, 0x02, 0x38, 0x00, 
  0x78, 0x00, 0x00, 0x00, 0x00, 0x00, 0x00, 0x3C, 0x00, 0x70, 0xC0, 0xEC, 
  0x27, 0x03, 0x0E, 0x00, 0x3C, 0x00, 0x00, 0x00, 0x00, 0x00, 0x00, 0x78, 
  0x00, 0xC0, 0x81, 0xF9, 0x9F, 0x81, 0x03, 0x00, 0x1E, 0x00, 0x00, 0x00, 
  0x00, 0x00, 0x00, 0xF0, 0x00, 0x80, 0x83, 0x39, 0x9C, 0xC1, 0x01, 0x00, 
  0x0F, 0x00, 0x00, 0x00, 0x00, 0x00, 0x00, 0xE0, 0x01, 0x00, 0x0E, 0x3F, 
  0xFC, 0x70, 0x00, 0x80, 0x07, 0x00, 0x00, 0x00, 0x00, 0x00, 0x00, 0xC0, 
  0x03, 0x00, 0xB8, 0x4F, 0xF2, 0x1C, 0x00, 0xC0, 0x03, 0x00, 0x00, 0x00, 
  0x00, 0x00, 0x00, 0x80, 0x07, 0x00, 0xF0, 0xCF, 0xF3, 0x0F, 0x00, 0xE0, 
  0x01, 0x00, 0x00, 0x00, 0x00, 0x00, 0x00, 0x80, 0x07, 0x00, 0xF0, 0x8F, 
  0xF1, 0x0F, 0x00, 0xE0, 0x01, 0x00, 0x00, 0x00, 0x00, 0x00, 0x00, 0xC0, 
  0x03, 0x00, 0x3C, 0xCF, 0xF3, 0x1C, 0x00, 0xC0, 0x03, 0x00, 0x00, 0x00, 
  0x00, 0x00, 0x00, 0xE0, 0x01, 0x00, 0x0E, 0x3F, 0xFE, 0x70, 0x00, 0x80, 
  0x07, 0x00, 0x00, 0x00, 0x00, 0x00, 0x00, 0xF0, 0x00, 0x80, 0x83, 0x39, 
  0xBC, 0xC1, 0x01, 0x00, 0x0F, 0x00, 0x00, 0x00, 0x00, 0x00, 0x00, 0x78, 
  0x00, 0xE0, 0x80, 0xF9, 0x1F, 0x81, 0x03, 0x00, 0x1E, 0x00, 0x00, 0x00, 
  0x00, 0x00, 0x00, 0x3C, 0x00, 0x30, 0xC0, 0xEC, 0x77, 0x03, 0x0E, 0x00, 
  0x3C, 0x00, 0x00, 0x00, 0x00, 0x00, 0x00, 0x1E, 0x00, 0x1C, 0x40, 0xE2, 
  0x67, 0x02, 0x3C, 0x00, 0x78, 0x00, 0x00, 0x00, 0x00, 0x00, 0x00, 0x0F, 
  0x00, 0x07, 0xE0, 0xF9, 0x8F, 0x07, 0x60, 0x00, 0xF0, 0x00, 0x00, 0x00, 
  0x00, 0x00, 0x80, 0x07, 0x00, 0x03, 0xF0, 0xDE, 0x79, 0x0D, 0xC0, 0x00, 
  0xE0, 0x01, 0x00, 0x00, 0x00, 0x00, 0xC0, 0x03, 0x80, 0x01, 0x70, 0x87, 
  0xE1, 0x0F, 0x80, 0x01, 0xC0, 0x03, 0x00, 0x00, 0x00, 0x00, 0xE0, 0x01, 
  0xC0, 0x00, 0xF8, 0xC1, 0x83, 0x1F, 0x00, 0x03, 0x80, 0x07, 0x00, 0x00, 
  0x00, 0x00, 0xF0, 0x00, 0xC0, 0x00, 0xF8, 0x40, 0x03, 0x1E, 0x00, 0x03, 
  0x00, 0x0F, 0x00, 0x00, 0x00, 0x00, 0x78, 0x00, 0x60, 0x00, 0x3C, 0x60, 
  0x06, 0x3C, 0x00, 0x06, 0x00, 0x1E, 0x00, 0x00, 0x00, 0x00, 0x3C, 0x00, 
  0x20, 0x00, 0x1E, 0x20, 0x04, 0x70, 0x00, 0x04, 0x00, 0x3C, 0x00, 0x00, 
  0x00, 0x00, 0x1E, 0x00, 0x30, 0x00, 0x06, 0x30, 0x0C, 0x60, 0x00, 0x0C, 
  0x00, 0x78, 0x00, 0x00, 0x00, 0x00, 0x0F, 0x00, 0x18, 0x00, 0x03, 0x18, 
  0x18, 0x80, 0x00, 0x18, 0x00, 0xF0, 0x00, 0x00, 0x00, 0x00, 0x07, 0x00, 
  0x08, 0xC0, 0x00, 0x18, 0x18, 0x00, 0x01, 0x18, 0x00, 0xE0, 0x00, 0x00, 
  0x00, 0x00, 0x07, 0x00, 0x0C, 0x40, 0x00, 0x0C, 0x30, 0x00, 0x03, 0x30, 
  0x00, 0xE0, 0x00, 0x00, 0x00, 0x00, 0x07, 0x00, 0x04, 0x20, 0x00, 0x04, 
  0x20, 0x00, 0x0C, 0x20, 0x00, 0xC0, 0x00, 0x00, 0x00, 0x00, 0x03, 0x00, 
  0x06, 0x30, 0x00, 0x06, 0x60, 0x00, 0x08, 0x60, 0x00, 0xE0, 0x00, 0x00, 
  0x00, 0x00, 0x07, 0x00, 0x03, 0x0C, 0x00, 0x03, 0xC0, 0x00, 0x30, 0xC0, 
  0x00, 0xC0, 0x00, 0x00, 0x00, 0x00, 0x03, 0x00, 0x03, 0x04, 0x00, 0x03, 
  0xC0, 0x00, 0x20, 0xC0, 0x00, 0xE0, 0x00, 0x00, 0x00, 0x00, 0x03, 0x80, 
  0x01, 0x02, 0x80, 0x01, 0x80, 0x01, 0x40, 0x80, 0x01, 0xC0, 0x00, 0x00, 
  0x00, 0x00, 0x07, 0x80, 0x00, 0x03, 0xC0, 0x00, 0x00, 0x03, 0xC0, 0x00, 
  0x01, 0xE0, 0x00, 0x00, 0x00, 0x00, 0x07, 0xC0, 0x80, 0x00, 0x70, 0x00, 
  0x00, 0x0E, 0x00, 0x03, 0x03, 0xC0, 0x00, 0x00, 0x00, 0x00, 0x03, 0x40, 
  0xC0, 0x00, 0x38, 0x00, 0x00, 0x1C, 0x00, 0x02, 0x06, 0xE0, 0x00, 0x00, 
  0x00, 0x00, 0x07, 0x60, 0x30, 0x00, 0x0E, 0x00, 0x00, 0x70, 0x00, 0x04, 
  0x06, 0xE0, 0x00, 0x00, 0x00, 0x00, 0x03, 0x30, 0x10, 0x80, 0x03, 0x00, 
  0x00, 0xC0, 0x01, 0x0C, 0x0C, 0xC0, 0x00, 0x00, 0x00, 0x00, 0x07, 0x10, 
  0x0C, 0xC0, 0x01, 0x00, 0x00, 0x80, 0x03, 0x10, 0x08, 0xC0, 0x00, 0x00, 
  0x00, 0x00, 0x03, 0x18, 0x04, 0x70, 0x00, 0x80, 0x01, 0x00, 0x0E, 0x30, 
  0x18, 0xE0, 0x00, 0x00, 0x00, 0x00, 0x03, 0x0C, 0x03, 0x1C, 0x00, 0xC0, 
  0x03, 0x00, 0x38, 0xC0, 0x30, 0xE0, 0x00, 0x00, 0x00, 0x00, 0x07, 0x0C, 
  0x01, 0x0E, 0x00, 0xE0, 0x07, 0x00, 0x70, 0x80, 0x30, 0xC0, 0x00, 0x00, 
  0x00, 0x00, 0x07, 0x86, 0x80, 0x03, 0x00, 0xF0, 0x0F, 0x00, 0xC0, 0x01, 
  0x63, 0xC0, 0x00, 0x00, 0x00, 0x00, 0x03, 0xC6, 0xE0, 0x01, 0x00, 0x78, 
  0x1E, 0x00, 0x00, 0x07, 0xC2, 0xE0, 0x00, 0x00, 0x00, 0x00, 0x07, 0x33, 
  0x38, 0x00, 0x00, 0x3C, 0x3C, 0x00, 0x00, 0x0E, 0xCC, 0xE0, 0x00, 0x00, 
  0x00, 0x00, 0x83, 0x11, 0x1C, 0x00, 0x00, 0x1E, 0x78, 0x00, 0x00, 0x38, 
  0x88, 0xC1, 0x00, 0x00, 0x00, 0x00, 0x83, 0x09, 0x06, 0x00, 0x00, 0x0F, 
  0xF0, 0x00, 0x00, 0xE0, 0x38, 0xC1, 0x00, 0x00, 0x00, 0x00, 0xC7, 0x8C, 
  0x03, 0x00, 0x80, 0x07, 0xE0, 0x01, 0x00, 0xC0, 0x61, 0xE3, 0x00, 0x00, 
  0x00, 0x00, 0x67, 0xE2, 0x00, 0x00, 0xC0, 0x03, 0xC0, 0x03, 0x00, 0x00, 
  0x67, 0xE6, 0x00, 0x00, 0x00, 0x00, 0x63, 0x39, 0x00, 0x00, 0xE0, 0x01, 
  0x80, 0x07, 0x00, 0x00, 0x8C, 0xC6, 0x00, 0x00, 0x00, 0x00, 0xE3, 0x1D, 
  0x00, 0x00, 0xF0, 0x00, 0x00, 0x0F, 0x00, 0x00, 0x38, 0xE7, 0x00, 0x00, 
  0x00, 0x00, 0xF7, 0x07, 0x00, 0x00, 0x78, 0x00, 0x00, 0x1E, 0x00, 0x00, 
  0xE0, 0xCF, 0x00, 0x00, 0x00, 0x00, 0xFF, 0x01, 0x00, 0x00, 0x3C, 0x00, 
  0x00, 0x3C, 0x00, 0x00, 0xC0, 0xFF, 0x00, 0x00, 0x00, 0x00, 0x7F, 0x00, 
  0x00, 0x00, 0x1E, 0x00, 0x00, 0x78, 0x00, 0x00, 0x00, 0xFF, 0x00, 0x00, 
  0x00, 0x00, 0x3F, 0x00, 0x00, 0x00, 0x0F, 0x00, 0x00, 0xF0, 0x00, 0x00, 
  0x00, 0xFC, 0x00, 0x00, 0x00, 0x00, 0xBF, 0x6A, 0xA6, 0xE6, 0x07, 0x00, 
  0x00, 0xE0, 0x6B, 0xA6, 0xA9, 0xFE, 0x00, 0x00, 0x00, 0x00, 0xFF, 0xFF, 
  0xFF, 0xFF, 0x03, 0x00, 0x00, 0xC0, 0xFF, 0xFF, 0xFF, 0xFF, 0x00, 0x00, 
  0x00, 0x00, 0xFF, 0xFF, 0xFF, 0xFF, 0x01, 0x00, 0x00, 0x80, 0xFF, 0xFF, 
  0xFF, 0xFF, 0x00, 0x00, 0x00, 0x00, 0x00, 0x00, 0x00, 0x00, 0x00, 0x00, 
  0x00, 0x00, 0x00, 0x00, 0x00, 0x00, 0x00, 0x00, 0x00, 0x00, 0x00, 0x00, 
  0x00, 0x00, 0x00, 0x00, 0x00, 0x00, 0x00, 0x00, 0x00, 0x00, 0x00, 0x00, 
  0x00, 0x00, 0x00, 0x00, 0x00, 0x00, 0x00, 0x00, 0x00, 0x00, 0x00, 0x00, 
  0x00, 0x00, 0x00, 0x00, 0x00, 0x00, 0x00, 0x00, 0x00, 0x00, 0x00, 0x00, 
  0x00, 0x00, 0x00, 0x00, 0x00, 0x00, 0x00, 0x00, 0x00, 0x00, 0x00, 0x00, 
  0x00, 0x00, 0x00, 0x00, 0x00, 0x00, 0x00, 0x00, 0x00, 0x00, 0x00, 0x00, 
  0x00, 0x00, 0x00, 0x00, 0x00, 0x00, 0x00, 0x00, 0x00, 0x00, 0x00, 0x00, 
  0x00, 0x00, 0x00, 0x00, 0x00, 0x00, 0x00, 0x00, 0x00, 0x00, 0x00, 0x00, 
  0x00, 0x00, 0x00, 0x00, 0x00, 0x00, 0x00, 0x00, 0x00, 0x00, 0x00, 0x00, 
  0x00, 0x00, 0x00, 0x00, 0x00, 0x00, 0x00, 0x00, 0x00, 0x00, 0x00, 0x00, 
  0x00, 0x00, 0x00, 0x00, 0x00, 0x00, 0x00, 0x00, 0x00, 0x00, 0x00, 0x00, 
  0x00, 0x00, 0x00, 0x00, 0x00, 0x00, 0x00, 0x00, 0x00, 0x00, 0x00, 0x00, 
  0x00, 0x00, 0x00, 0x00, 0x00, 0x00, 0x00, 0x00, 0x00, 0x00, 0x00, 0x00, 
  0x00, 0x00, 0x00, 0x00, 0x00, 0x00, 0x00, 0x00, 0x00, 0x00, 0x00, 0x00, 
  0x00, 0x00, 0x00, 0x00, 0x00, 0x00, 0x00, 0x00, 0x00, 0x00, 0x00, 0x00, 
  0x00, 0x00, 0x00, 0x00, 0x00, 0x00, 0x00, 0x00, 0x00, 0x00, 0x00, 0x00, 
  0x00, 0x00, 0x00, 0x00, 0x00, 0x00, 0x00, 0x00, 0x00, 0x00, 0x00, 0x00, 
  0x00, 0x00, 0x00, 0x00, 0x00, 0x00, 0x00, 0x00, 0x00, 0x00, 0x00, 0x00, 
  0x00, 0x00, 0x00, 0x00, 0x00, 0x00, 0x00, 0x00, 0x00, 0x00, 0x00, 0x00, 
  0x00, 0x00, 0x00, 0x00, 0x00, 0x00, 0x00, 0x00, 0x00, 0x00, 0x00, 0x00, 
  0x00, 0x00, 0x00, 0x00, 0x00, 0x00, 0x00, 0x00, };
